<svg width="400" height="400" xmlns="http://www.w3.org/2000/svg">
    <g stroke="null" id="svg_1">
        <path stroke="null" id="svg_2"
              d="m109.4,84.73654c0,42.75465 -16.98689,86.17965 -37.75,96.50001c-30.2,15.01026 -30.2,22.51667 0,37.52692c20.7631,10.32036 37.75,53.74536 37.75,96.50001c0,42.75594 12.231,77.73655 27.18,77.73655c14.949,0 27.18,-86.85001 27.18,-193.00001c0,-106.15001 -12.231,-193.00001 -27.18,-193.00001c-14.949,0 -27.18,34.9819 -27.18,77.73655m126.83999,115.26347c0,106.15001 12.231,193.00001 27.18,193.00001c14.949,0 27.18,-34.98061 27.18,-77.73655c0,-42.75465 16.9881,-86.17965 37.75,-96.50001c30.2,-15.01026 30.2,-22.51667 0,-37.52692c-20.76189,-10.32036 -37.75,-53.74536 -37.75,-96.50001c0,-42.75594 -12.231,-77.73655 -27.18,-77.73655c-14.949,0 -27.18,86.85001 -27.18,193.00001"
              fill="#000000" fill-rule="evenodd"/>
    </g>
</svg>