<svg width="1543.000000" height="320.000000" viewBox="0 0 1543 320" fill="none" xmlns="http://www.w3.org/2000/svg"
     xmlns:xlink="http://www.w3.org/1999/xlink">
  <path id="1"
        d="M670.188 0L670.188 314.171L631.794 314.171L629.352 294.433C614.698 310.387 595.517 318.364 571.81 318.364C554.16 318.364 538.399 313.625 524.526 304.148C510.654 294.603 499.907 281.615 492.287 265.184C484.732 248.684 480.954 230.651 480.954 211.083C480.954 191.857 484.602 173.994 491.896 157.494Q500.134 139.027 513.701 126.197L513.703 126.196Q518.318 121.832 523.549 118.121C537.292 108.371 553.378 103.496 571.81 103.496Q596.624 103.496 614.678 114.544Q622.213 119.154 628.57 125.689L628.57 0L670.188 0ZM1224.46 0L1266.08 0L1266.08 196.868L1334.08 107.28L1382.92 107.28L1307.31 204.845L1384.88 314.171L1335.64 314.171L1266.08 214.458L1266.08 314.171L1224.46 314.171L1224.46 0ZM139.214 320C111.99 320 87.827 313.727 66.7251 301.182Q56.8578 295.298 48.3566 287.854Q29.6711 271.492 17.585 247.593Q0 212.822 0 167.108Q0 121.905 18.5619 87.3378Q29.4876 66.9913 45.4905 52.1014L45.4906 52.1013Q56.6752 41.6946 70.3398 33.9533Q75.3693 31.0885 80.6005 28.6575Q109.917 15.0336 145.564 15.0336Q161.151 15.0336 176.32 17.5535L176.321 17.5536Q181.877 18.4767 187.377 19.7379Q207.991 24.34 223.622 31.8057L219.226 73.736C194.672 63.1 170.411 57.782 146.444 57.782Q107.9 57.782 84.3204 76.5658Q78.0166 81.5874 72.7822 87.9514C56.2393 108.064 47.9678 134.45 47.9678 167.108Q47.9678 216.667 72.2301 246.482Q72.601 246.938 72.9775 247.389C89.6506 267.366 114.009 277.354 146.053 277.354Q169.988 277.354 189.234 271.013L189.234 206.481L147.616 206.481L147.616 167.108L232.805 167.108L232.805 297.808C221.863 304.557 208.186 309.944 191.774 313.966Q167.252 320 139.214 320ZM403.336 20.9652L444.954 20.9652L444.954 66.9863L403.336 66.9863L403.336 20.9652ZM719.876 20.9652L763.448 20.9652L763.448 273.161L886.347 273.161L886.347 314.171L719.876 314.171L719.876 20.9652ZM912.734 20.9652L954.351 20.9652L954.351 66.9863L912.734 66.9863L912.734 20.9652ZM274.486 107.28L311.317 107.28L314.052 136.12C331.702 114.098 350.134 103.087 369.347 103.087C372.278 103.087 375.339 103.36 378.53 103.905L374.916 149.517C370.617 148.427 365.798 147.881 360.457 147.881C351.404 147.881 342.872 150.131 334.861 154.631C326.85 159.063 321.119 164.21 317.667 170.074L317.667 314.171L274.486 314.171L274.486 107.28ZM1466.51 318.364Q1433.7 318.364 1406.99 305.607Q1403.08 303.736 1399.29 301.592L1403.69 261.4C1411.44 267.263 1420.49 272.24 1430.85 276.331C1441.27 280.354 1452.63 282.365 1464.94 282.365C1476.41 282.365 1485.2 280.422 1491.32 276.536C1497.44 272.581 1500.5 266.684 1500.5 258.843Q1500.5 251.066 1497 245.489Q1494.65 241.752 1490.73 239.003C1484.22 234.367 1474.68 229.969 1462.11 225.81C1449.34 221.31 1438.83 216.913 1430.55 212.617Q1424.8 209.584 1420 205.451L1419.99 205.45Q1414.43 200.667 1410.14 194.414C1404.8 186.573 1402.12 176.516 1402.12 164.244C1402.12 146.654 1408.44 132.063 1421.08 120.473C1433.78 108.882 1452.14 103.087 1476.18 103.087C1496.95 103.087 1515.87 107.962 1532.94 117.712L1528.54 156.267Q1516.13 146.654 1503.92 141.438C1495.78 137.893 1486.79 136.12 1476.96 136.12C1466.54 136.12 1458.4 138.234 1452.54 142.461C1446.67 146.62 1443.74 152.756 1443.74 160.869C1443.74 166.733 1445.21 171.471 1448.14 175.085C1451.07 178.698 1455.34 181.766 1460.94 184.289C1466.54 186.812 1475.33 190.323 1487.31 194.823C1504.38 200.959 1517.93 208.493 1527.96 217.424C1537.99 226.356 1543 239.48 1543 256.798Q1543 272.266 1536.78 284.598Q1532.23 293.629 1524.34 300.978C1511.97 312.568 1492.69 318.364 1466.51 318.364ZM1100.75 103.496C1127.19 103.496 1146.79 111.951 1159.56 128.859C1172.39 145.699 1178.8 169.221 1178.8 199.425L1178.8 314.171L1137.19 314.171L1137.19 201.061C1137.19 180.13 1133.57 164.858 1126.34 155.244C1119.18 145.563 1107.32 140.722 1090.78 140.722C1080.62 140.722 1071.54 142.699 1063.53 146.654C1055.58 150.54 1049.07 156.267 1043.99 163.835L1043.99 314.171L1002.37 314.171L1002.37 107.28L1037.93 107.28L1040.37 126.098C1058.22 111.03 1078.34 103.496 1100.75 103.496ZM403.336 107.28L444.954 107.28L444.954 314.171L403.336 314.171L403.336 107.28ZM912.734 107.28L954.351 107.28L954.351 314.171L912.734 314.171L912.734 107.28ZM578.551 281.035C594.052 281.035 606.785 274.967 616.749 262.832C626.779 250.696 631.794 233.446 631.794 211.083C631.794 189.607 626.714 172.528 616.554 159.847Q607.693 148.656 596.19 144.013Q588.034 140.722 578.551 140.722C561.748 140.722 548.396 147.233 538.496 160.256C528.662 173.21 523.745 190.152 523.745 211.083C523.745 231.196 528.662 247.9 538.496 261.195C548.396 274.422 561.748 281.035 578.551 281.035Z"
        fill-rule="evenodd" fill="#305680"/>
</svg>
